# xmcd
#
# Track frame offsets:
#	150
#	12733
#	27700
#	40276
#	53056
#	64297
#	76497
#	86717
#	97513
#	110085
#	122148
#	133807
#	144981
#	156700
#	168987
#	180378
#	193390
#	205358
#	217590
#	233984
#
# Disc length: 3291 seconds
#
# Revision: 0
# Processed by: cddbd v1.5.2PL0 Copyright (c) Steve Scherf et al.
# Submitted via: EZCDAudioConverter 7.0.0.1
#
DISCID=270cd914
DTITLE=Various Artist - History of Country and Western [CD19)
DYEAR=2005
DGENRE=Country
TTITLE0=Moanin' the Blues
TTITLE1=Remember Me
TTITLE2=I Overlooked an Orchid
TTITLE3=If You've Got the Money
TTITLE4=I Just Don't Like This Kind of Loving
TTITLE5=Mr. and Mississippi
TTITLE6=My Western Union Baby
TTITLE7=Release Me
TTITLE8=Darling I Don't Understand
TTITLE9=Black Coffee Blues
TTITLE10=Herbie's Steel Guitar Polka
TTITLE11=Rag Mop
TTITLE12=Live and Let Live
TTITLE13=I Don't Get No Lovin'
TTITLE14=Adam's Apple
TTITLE15=12th Street Rag
TTITLE16=How Long
TTITLE17=Why Should We Try Anymore
TTITLE18=Don't Fence Me In
TTITLE19=Cold Cold Heart
EXTD=
EXTT0=
EXTT1=
EXTT2=
EXTT3=
EXTT4=
EXTT5=
EXTT6=
EXTT7=
EXTT8=
EXTT9=
EXTT10=
EXTT11=
EXTT12=
EXTT13=
EXTT14=
EXTT15=
EXTT16=
EXTT17=
EXTT18=
EXTT19=
PLAYORDER=
